<svg width="128" height="40" viewBox="0 0 128 40" fill="none" xmlns="http://www.w3.org/2000/svg">
<path d="M37.3959 28.03H39.8655V18.52H42.056V16.5889H39.8655V15.7791C39.8655 14.4709 40.381 13.9726 41.8842 13.9726V12C38.7918 12 37.3959 13.142 37.3959 15.7791V16.5889H36V18.52H37.3959V28.03Z" fill="white"/>
<path d="M44.2257 28.03H46.6739V16.5889H44.2257V28.03ZM45.4713 15.0731C46.3303 15.0731 47.0175 14.4087 47.0175 13.5573C47.0175 12.706 46.3303 12.0415 45.4713 12.0415C44.5908 12.0415 43.9036 12.706 43.9036 13.5573C43.9036 14.4087 44.5908 15.0731 45.4713 15.0731Z" fill="white"/>
<path d="M58.2849 28.03H60.7116V21.2816C60.7116 18.0839 58.6285 16.402 55.8582 16.402C54.4409 16.402 53.1309 16.9627 52.3363 17.897V16.5889H49.8881V28.03H52.3363V21.6346C52.3363 19.5374 53.5174 18.4577 55.3214 18.4577C57.1038 18.4577 58.2849 19.5374 58.2849 21.6346V28.03Z" fill="white"/>
<path d="M63.0184 22.2575C63.0184 25.7875 65.4881 28.2169 68.559 28.2169C70.5347 28.2169 71.9521 27.3033 72.7037 26.3273V28.03H75.1734V16.5889H72.7037V18.25C71.9736 17.3157 70.5992 16.402 68.602 16.402C65.4881 16.402 63.0184 18.7276 63.0184 22.2575ZM72.7037 22.2991C72.7037 24.77 70.9642 26.1612 69.1174 26.1612C67.292 26.1612 65.531 24.7285 65.531 22.2575C65.531 19.7866 67.292 18.4577 69.1174 18.4577C70.9642 18.4577 72.7037 19.8489 72.7037 22.2991Z" fill="white"/>
<path d="M86.7858 28.03H89.2125V21.2816C89.2125 18.0839 87.1294 16.402 84.3591 16.402C82.9417 16.402 81.6317 16.9627 80.8372 17.897V16.5889H78.389V28.03H80.8372V21.6346C80.8372 19.5374 82.0183 18.4577 83.8222 18.4577C85.6047 18.4577 86.7858 19.5374 86.7858 21.6346V28.03Z" fill="white"/>
<path d="M91.5193 22.2991C91.5193 25.8913 93.9245 28.2169 97.3176 28.2169C100.217 28.2169 102.107 26.6596 102.772 24.417H100.131C99.6798 25.6006 98.7779 26.2235 97.3176 26.2235C95.3418 26.2235 94.0319 24.8115 94.0319 22.2991C94.0319 19.8074 95.3418 18.3954 97.3176 18.3954C98.7779 18.3954 99.7228 19.1014 100.131 20.2019H102.772C102.107 17.7932 100.217 16.402 97.3176 16.402C93.9245 16.402 91.5193 18.7276 91.5193 22.2991Z" fill="white"/>
<path d="M110.194 18.3954C112.02 18.3954 113.459 19.5167 113.502 21.2816H106.952C107.209 19.4751 108.541 18.3954 110.194 18.3954ZM115.735 24.6247H113.093C112.643 25.5175 111.805 26.2235 110.302 26.2235C108.498 26.2235 107.102 25.0815 106.93 23.1919H115.971C116.036 22.7974 116.057 22.4237 116.057 22.0291C116.057 18.6653 113.673 16.402 110.302 16.402C106.801 16.402 104.396 18.7069 104.396 22.2991C104.396 25.8913 106.909 28.2169 110.302 28.2169C113.201 28.2169 115.069 26.618 115.735 24.6247Z" fill="white"/>
<path d="M127.293 24.8323C127.164 20.7002 120.485 21.9876 120.485 19.6828C120.485 18.9145 121.172 18.3954 122.482 18.3954C123.814 18.3954 124.608 19.0806 124.694 20.0773H127.142C127.013 17.7932 125.253 16.402 122.568 16.402C119.776 16.402 118.015 17.8763 118.015 19.7035C118.015 23.8979 124.887 22.6105 124.887 24.8531C124.887 25.6421 124.136 26.2235 122.718 26.2235C121.366 26.2235 120.442 25.4552 120.356 24.5208H117.822C117.929 26.5973 119.927 28.2169 122.761 28.2169C125.553 28.2169 127.293 26.7634 127.293 24.8323Z" fill="white"/>
<path d="M17.142 12.96V27H13.722V18.58L10.582 27H7.82195L4.66195 18.56V27H1.24195V12.96H5.28195L9.22195 22.68L13.122 12.96H17.142ZM31.0013 15.84L24.0013 32.3H20.3213L22.8813 26.62L18.3413 15.84H22.1613L24.7413 22.82L27.3013 15.84H31.0013Z" fill="white"/>
<path d="M32.5177 28.16C31.9177 28.16 31.4244 27.9867 31.0377 27.64C30.6644 27.28 30.4777 26.84 30.4777 26.32C30.4777 25.7867 30.6644 25.34 31.0377 24.98C31.4244 24.62 31.9177 24.44 32.5177 24.44C33.1044 24.44 33.5844 24.62 33.9577 24.98C34.3444 25.34 34.5377 25.7867 34.5377 26.32C34.5377 26.84 34.3444 27.28 33.9577 27.64C33.5844 27.9867 33.1044 28.16 32.5177 28.16Z" fill="#FF872C"/>
</svg>
